<?xml version="1.0" encoding="UTF-8" standalone="no"?>
<!DOCTYPE svg PUBLIC "-//W3C//DTD SVG 1.1//EN" "http://www.w3.org/Graphics/SVG/1.1/DTD/svg11.dtd">
<svg width="100%" height="100%" viewBox="0 0 36 32" version="1.1" xmlns="http://www.w3.org/2000/svg" xmlns:xlink="http://www.w3.org/1999/xlink" xml:space="preserve" xmlns:serif="http://www.serif.com/" style="fill-rule:evenodd;clip-rule:evenodd;stroke-linejoin:round;stroke-miterlimit:2;">
    <g transform="matrix(1,0,0,1,-3751,-791)">
        <g transform="matrix(1,0,0,1,2311.72,0)">
            <g id="overlord_s_admin_positive" transform="matrix(0.456292,0,0,0.456292,1268.83,720.767)">
                <g transform="matrix(0.751742,0,0,0.751742,-125.997,-233.363)">
                    <path d="M718.85,606.183C718.293,606.194 717.731,606.199 717.166,606.199C706.749,606.199 697.77,604.366 690.228,600.699C682.686,597.033 676.874,591.824 672.791,585.074C668.707,578.324 666.666,570.199 666.666,560.699C666.666,551.283 668.707,543.178 672.791,536.387C676.874,529.595 682.686,524.366 690.228,520.699C697.77,517.033 706.749,515.199 717.166,515.199C719.294,515.199 721.363,515.276 723.373,515.429C717.971,516.611 712.831,518.751 708.435,521.506C702.468,525.247 697.895,530.126 695.763,535.219C695.111,536.542 694.516,537.952 693.978,539.449C691.853,545.366 690.791,552.449 690.791,560.699C690.791,568.949 691.853,576.033 693.978,581.949C695.032,584.884 696.306,587.485 697.801,589.754C702.279,597.287 709.107,603.429 718.85,606.183ZM715.387,600.392C715.971,600.43 716.563,600.449 717.166,600.449C722.666,600.449 727.395,598.845 731.353,595.637C735.311,592.428 738.353,587.866 740.478,581.949C742.603,576.033 743.666,568.949 743.666,560.699C743.666,552.449 742.603,545.366 740.478,539.449C738.353,533.533 735.311,528.97 731.353,525.762C727.834,522.91 723.706,521.325 718.968,521.009C726.552,518.287 735.179,517.553 742.957,520.23C743.097,520.278 743.238,520.311 743.379,520.328C743.644,520.45 743.905,520.573 744.166,520.699C751.749,524.366 757.582,529.574 761.666,536.324C765.749,543.074 767.791,551.199 767.791,560.699C767.791,570.116 765.749,578.22 761.666,585.012C757.582,591.803 751.749,597.033 744.166,600.699C742.354,601.575 740.461,602.347 738.487,603.014C729.559,606.029 718.714,603.072 715.387,600.392Z" style="fill:url(#_Linear1);fill-rule:nonzero;"/>
                </g>
                <g transform="matrix(5.57262e-17,0.910077,-0.910077,5.57262e-17,600.265,-163.414)">
                    <path d="M391.813,190.867L391.813,221.027L382.074,221.027L382.074,190.867L391.813,190.867ZM382.349,213.656L382.349,221.027L374.994,221.027L374.994,219.448L376.189,219.448C377.783,219.448 379.147,218.881 380.281,217.747C381.415,216.613 382.012,215.249 382.074,213.656L382.349,213.656ZM382.349,198.391L382.074,198.391C382.012,196.797 381.415,195.433 380.281,194.299C379.147,193.165 377.783,192.598 376.189,192.598L374.994,192.598L374.994,190.867L382.349,190.867L382.349,198.391ZM391.537,213.656L391.813,213.656C391.874,215.249 392.472,216.613 393.606,217.747C394.74,218.881 396.104,219.448 397.697,219.448L398.893,219.448L398.893,221.027L391.537,221.027L391.537,213.656ZM391.537,198.391L391.537,190.867L398.893,190.867L398.893,192.598L397.697,192.598C396.104,192.598 394.74,193.165 393.606,194.299C392.472,195.433 391.874,196.797 391.813,198.391L391.537,198.391Z" style="fill:url(#_Linear2);fill-rule:nonzero;"/>
                </g>
            </g>
        </g>
    </g>
    <defs>
        <linearGradient id="_Linear1" x1="0" y1="0" x2="1" y2="0" gradientUnits="userSpaceOnUse" gradientTransform="matrix(-0.062498,91,-91,-0.062498,717.228,515.199)"><stop offset="0" style="stop-color:rgb(53,149,255);stop-opacity:1"/><stop offset="1" style="stop-color:rgb(0,84,187);stop-opacity:1"/></linearGradient>
        <linearGradient id="_Linear2" x1="0" y1="0" x2="1" y2="0" gradientUnits="userSpaceOnUse" gradientTransform="matrix(75.1678,0.0516246,-0.0516246,75.1678,348.704,205.577)"><stop offset="0" style="stop-color:rgb(53,149,255);stop-opacity:1"/><stop offset="1" style="stop-color:rgb(0,84,187);stop-opacity:1"/></linearGradient>
    </defs>
</svg>
