<?xml version="1.0" encoding="UTF-8" standalone="no"?>
<!DOCTYPE svg PUBLIC "-//W3C//DTD SVG 1.1//EN" "http://www.w3.org/Graphics/SVG/1.1/DTD/svg11.dtd">
<svg width="100%" height="100%" viewBox="0 0 145 33" version="1.1" xmlns="http://www.w3.org/2000/svg" xmlns:xlink="http://www.w3.org/1999/xlink" xml:space="preserve" xmlns:serif="http://www.serif.com/" style="fill-rule:evenodd;clip-rule:evenodd;stroke-linejoin:round;stroke-miterlimit:2;">
    <g transform="matrix(1,0,0,1,-3756,-720)">
        <g transform="matrix(1,0,0,1,2311.72,0)">
            <g id="overlord_h_admin_positive">
                <g id="overlord_h_positive" transform="matrix(0.340514,0,0,0.340514,1316.67,667.66)">
                    <g>
                        <g transform="matrix(0.751742,0,0,0.751742,-125.997,-233.363)">
                            <path d="M718.85,606.183C718.293,606.194 717.731,606.199 717.166,606.199C706.749,606.199 697.77,604.366 690.228,600.699C682.686,597.033 676.874,591.824 672.791,585.074C668.707,578.324 666.666,570.199 666.666,560.699C666.666,551.283 668.707,543.178 672.791,536.387C676.874,529.595 682.686,524.366 690.228,520.699C697.77,517.033 706.749,515.199 717.166,515.199C719.294,515.199 721.363,515.276 723.373,515.429C717.971,516.611 712.831,518.751 708.435,521.506C702.468,525.247 697.895,530.126 695.763,535.219C695.111,536.542 694.516,537.952 693.978,539.449C691.853,545.366 690.791,552.449 690.791,560.699C690.791,568.949 691.853,576.033 693.978,581.949C695.032,584.884 696.306,587.485 697.801,589.754C702.279,597.287 709.107,603.429 718.85,606.183ZM715.387,600.392C715.971,600.43 716.563,600.449 717.166,600.449C722.666,600.449 727.395,598.845 731.353,595.637C735.311,592.428 738.353,587.866 740.478,581.949C742.603,576.033 743.666,568.949 743.666,560.699C743.666,552.449 742.603,545.366 740.478,539.449C738.353,533.533 735.311,528.97 731.353,525.762C727.834,522.91 723.706,521.325 718.968,521.009C726.552,518.287 735.179,517.553 742.957,520.23C743.097,520.278 743.238,520.311 743.379,520.328C743.644,520.45 743.905,520.573 744.166,520.699C751.749,524.366 757.582,529.574 761.666,536.324C765.749,543.074 767.791,551.199 767.791,560.699C767.791,570.116 765.749,578.22 761.666,585.012C757.582,591.803 751.749,597.033 744.166,600.699C742.354,601.575 740.461,602.347 738.487,603.014C729.559,606.029 718.714,603.072 715.387,600.392Z" style="fill:url(#_Linear1);fill-rule:nonzero;"/>
                        </g>
                        <g transform="matrix(5.57262e-17,0.910077,-0.910077,5.57262e-17,600.265,-163.414)">
                            <path d="M391.813,190.867L391.813,221.027L382.074,221.027L382.074,190.867L391.813,190.867ZM382.349,213.656L382.349,221.027L374.994,221.027L374.994,219.448L376.189,219.448C377.783,219.448 379.147,218.881 380.281,217.747C381.415,216.613 382.012,215.249 382.074,213.656L382.349,213.656ZM382.349,198.391L382.074,198.391C382.012,196.797 381.415,195.433 380.281,194.299C379.147,193.165 377.783,192.598 376.189,192.598L374.994,192.598L374.994,190.867L382.349,190.867L382.349,198.391ZM391.537,213.656L391.813,213.656C391.874,215.249 392.472,216.613 393.606,217.747C394.74,218.881 396.104,219.448 397.697,219.448L398.893,219.448L398.893,221.027L391.537,221.027L391.537,213.656ZM391.537,198.391L391.537,190.867L398.893,190.867L398.893,192.598L397.697,192.598C396.104,192.598 394.74,193.165 393.606,194.299C392.472,195.433 391.874,196.797 391.813,198.391L391.537,198.391Z" style="fill:url(#_Linear2);fill-rule:nonzero;"/>
                        </g>
                    </g>
                    <g>
                        <g transform="matrix(0.396339,0,0,0.396339,210.784,-21.6976)">
                            <path d="M619.069,506.516L619.037,506.516C617.193,502.564 614.822,499.798 611.925,498.218C609.027,496.637 606.261,495.847 603.626,495.847L602.243,495.847L602.243,493.871L666.06,493.871L666.06,495.649L664.479,495.649C662.24,495.649 660.231,496.571 658.453,498.415C656.675,500.259 656.445,502.959 657.762,506.516L657.727,506.516L682.984,564.226L708.7,506.516L708.538,506.516C709.987,502.959 709.823,500.259 708.044,498.415C706.266,496.571 704.258,495.649 702.018,495.649L700.438,495.649L700.438,493.871L740.348,493.871L740.348,495.847L738.767,495.847C736.265,495.847 733.564,496.637 730.667,498.218C727.769,499.798 725.332,502.564 723.356,506.516L723.348,506.516L683.842,589.497C683.446,590.551 682.755,592.164 681.767,594.337C680.779,596.511 679.725,598.882 678.606,601.45C677.486,604.019 676.531,606.521 675.741,608.958C674.951,611.395 674.424,613.337 674.16,614.786L672.58,614.786L619.069,506.516Z" style="fill:rgb(43,43,43);fill-rule:nonzero;"/>
                        </g>
                        <g transform="matrix(0.396339,0,0,0.396339,210.784,-21.6976)">
                            <path d="M829.651,525.285L827.676,525.285L827.676,523.902C827.676,517.185 825.897,511.949 822.341,508.195C818.785,504.441 813.714,502.498 807.128,502.367L782.826,502.367L782.826,549.587L801.596,549.587C806.733,549.455 810.882,547.677 814.043,544.252C817.204,540.828 818.785,536.613 818.785,531.608L818.785,530.817L820.958,530.817L820.958,577.05L818.785,577.05L818.785,576.062C818.785,570.925 817.204,566.677 814.043,563.318C810.882,559.959 806.733,558.214 801.596,558.083L782.826,558.083L782.826,603.92L803.967,603.92C809.367,603.92 814.339,602.701 818.883,600.265C823.428,597.828 827.379,594.337 830.738,589.793C834.097,585.249 836.566,579.816 838.147,573.493L839.925,573.493L833.405,612.415L736.396,612.415L736.396,610.44L738.57,610.44C741.467,610.44 743.937,609.452 745.979,607.476C748.02,605.5 749.041,603.064 749.041,600.166L749.041,506.318C749.041,503.289 748.02,500.786 745.979,498.81C743.937,496.835 741.467,495.847 738.57,495.847L736.396,495.847L736.396,493.871L809.499,493.871C813.187,493.871 817.105,493.509 821.254,492.784C825.403,492.06 828.202,491.434 829.651,490.907L829.651,525.285Z" style="fill:rgb(43,43,43);fill-rule:nonzero;"/>
                        </g>
                        <g transform="matrix(0.396339,0,0,0.396339,210.784,-21.6976)">
                            <path d="M840.32,612.415L840.32,610.44L842.494,610.44C845.26,610.44 847.663,609.452 849.705,607.476C851.747,605.5 852.767,603.064 852.767,600.166L852.767,506.121C852.767,503.091 851.78,500.621 849.804,498.711C847.828,496.802 845.457,495.847 842.691,495.847L840.32,495.847L840.32,493.871L904.532,493.871C909.801,493.871 915.036,494.365 920.239,495.353C925.442,496.341 930.184,497.987 934.464,500.292C938.745,502.597 942.17,505.857 944.738,510.072C947.307,514.287 948.591,519.687 948.591,526.273C948.591,530.62 947.801,535.065 946.22,539.609C944.639,544.154 941.906,548.105 938.021,551.464C934.135,554.823 928.899,557.029 922.314,558.083C926.792,559.4 930.842,561.836 934.464,565.393C938.087,568.949 940.82,572.242 942.664,575.271C943.322,576.589 944.277,578.4 945.529,580.705C946.78,583.01 948.295,585.611 950.073,588.509C951.851,591.407 953.794,594.37 955.901,597.4C958.535,601.088 960.808,603.887 962.717,605.797C964.627,607.707 966.537,608.958 968.447,609.551C970.357,610.143 972.497,610.44 974.868,610.44L974.868,612.415L954.913,612.415C947.932,612.415 941.906,611.987 936.835,611.131C931.764,610.275 927.352,608.464 923.598,605.698C919.844,602.932 916.189,598.717 912.632,593.053C911.447,590.814 910.262,588.575 909.076,586.336C907.891,584.096 906.804,581.824 905.816,579.519C904.828,577.214 903.972,574.909 903.248,572.604C902.523,570.299 901.898,568.093 901.371,565.985C900.185,561.639 898.671,558.642 896.826,556.996C894.982,555.349 893.468,554.46 892.282,554.329L892.282,552.748L895.246,552.748C897.748,552.748 900.185,552.155 902.556,550.97C904.927,549.784 907.067,547.743 908.977,544.845C910.887,541.947 912.237,537.732 913.028,532.2C913.159,531.542 913.291,530.587 913.423,529.335C913.554,528.084 913.554,526.602 913.423,524.89C913.159,519.621 912.237,515.505 910.657,512.542C909.076,509.578 907.166,507.405 904.927,506.022C902.688,504.639 900.58,503.75 898.605,503.354C896.629,502.959 895.18,502.762 894.258,502.762C892.809,502.63 891.492,502.597 890.307,502.663C889.175,502.726 887.924,502.759 886.553,502.761L886.553,600.166C886.553,603.459 887.705,605.994 890.01,607.772C892.315,609.551 894.719,610.44 897.222,610.44L899.197,610.44L899.197,612.415L840.32,612.415Z" style="fill:rgb(43,43,43);fill-rule:nonzero;"/>
                        </g>
                        <g transform="matrix(0.396339,0,0,0.396339,210.784,-21.6976)">
                            <path d="M970.522,612.415L970.522,610.44L972.695,610.44C975.593,610.44 978.062,609.452 980.104,607.476C982.146,605.5 983.166,603.064 983.166,600.166L983.166,506.121C983.166,503.091 982.146,500.621 980.104,498.711C978.062,496.802 975.593,495.847 972.695,495.847L970.522,495.847L970.522,493.871L1029.79,493.871L1029.79,495.847L1027.62,495.847C1024.59,495.847 1022.06,496.802 1020.01,498.711C1017.97,500.621 1016.95,503.091 1016.95,506.121L1016.95,603.92L1038.09,603.92C1043.49,603.92 1048.46,602.701 1053.01,600.265C1057.55,597.828 1061.51,594.337 1064.86,589.793C1068.22,585.249 1070.69,579.816 1072.27,573.493L1074.25,573.493L1067.53,612.415L970.522,612.415Z" style="fill:rgb(43,43,43);fill-rule:nonzero;"/>
                        </g>
                        <path d="M664.271,173.103C668.552,173.103 672.428,173.651 675.9,174.748C679.371,175.844 682.347,177.449 684.827,179.564C687.306,181.678 689.186,184.249 690.465,187.277C691.744,190.305 692.383,193.75 692.383,197.613C692.383,201.424 691.744,204.83 690.465,207.832C689.186,210.834 687.306,213.392 684.827,215.506C682.347,217.62 679.371,219.226 675.9,220.322C672.428,221.418 668.552,221.966 664.271,221.966C659.991,221.966 656.114,221.418 652.643,220.322C649.171,219.226 646.196,217.62 643.716,215.506C641.236,213.392 639.357,210.834 638.078,207.832C636.799,204.83 636.159,201.424 636.159,197.613C636.159,193.75 636.799,190.305 638.078,187.277C639.357,184.249 641.236,181.678 643.716,179.564C646.196,177.449 649.171,175.844 652.643,174.748C656.114,173.651 659.991,173.103 664.271,173.103ZM664.271,218.678C667.247,218.678 669.779,217.842 671.867,216.172C673.955,214.501 675.56,212.087 676.683,208.928C677.805,205.77 678.366,201.998 678.366,197.613C678.366,193.176 677.805,189.365 676.683,186.18C675.56,182.996 673.955,180.568 671.867,178.898C669.779,177.227 667.247,176.392 664.271,176.392C661.296,176.392 658.764,177.227 656.676,178.898C654.587,180.568 652.969,182.996 651.821,186.18C650.672,189.365 650.098,193.176 650.098,197.613C650.098,201.998 650.672,205.77 651.821,208.928C652.969,212.087 654.587,214.501 656.676,216.172C658.764,217.842 661.296,218.678 664.271,218.678Z" style="fill:rgb(43,43,43);fill-rule:nonzero;"/>
                        <g transform="matrix(0.396339,0,0,0.396339,210.784,-21.6976)">
                            <path d="M1214.33,612.415L1214.33,610.44L1216.5,610.44C1219.27,610.44 1221.67,609.452 1223.71,607.476C1225.76,605.5 1226.78,603.064 1226.78,600.166L1226.78,506.121C1226.78,503.091 1225.79,500.621 1223.81,498.711C1221.84,496.802 1219.46,495.847 1216.7,495.847L1214.33,495.847L1214.33,493.871L1278.54,493.871C1283.81,493.871 1289.04,494.365 1294.25,495.353C1299.45,496.341 1304.19,497.987 1308.47,500.292C1312.75,502.597 1316.18,505.857 1318.75,510.072C1321.32,514.287 1322.6,519.687 1322.6,526.273C1322.6,530.62 1321.81,535.065 1320.23,539.609C1318.65,544.154 1315.91,548.105 1312.03,551.464C1308.14,554.823 1302.91,557.029 1296.32,558.083C1300.8,559.4 1304.85,561.836 1308.47,565.393C1312.09,568.949 1314.83,572.242 1316.67,575.271C1317.33,576.589 1318.29,578.4 1319.54,580.705C1320.79,583.01 1322.3,585.611 1324.08,588.509C1325.86,591.407 1327.8,594.37 1329.91,597.4C1332.54,601.088 1334.82,603.887 1336.73,605.797C1338.63,607.707 1340.55,608.958 1342.45,609.551C1344.37,610.143 1346.51,610.44 1348.88,610.44L1348.88,612.415L1328.92,612.415C1321.94,612.415 1315.91,611.987 1310.84,611.131C1305.77,610.275 1301.36,608.464 1297.61,605.698C1293.85,602.932 1290.2,598.717 1286.64,593.053C1285.45,590.814 1284.27,588.575 1283.08,586.336C1281.9,584.096 1280.81,581.824 1279.82,579.519C1278.84,577.214 1277.98,574.909 1277.26,572.604C1276.53,570.299 1275.9,568.093 1275.38,565.985C1274.19,561.639 1272.68,558.642 1270.83,556.996C1268.99,555.349 1267.48,554.46 1266.29,554.329L1266.29,552.748L1269.25,552.748C1271.76,552.748 1274.19,552.155 1276.56,550.97C1278.93,549.784 1281.08,547.743 1282.99,544.845C1284.89,541.947 1286.25,537.732 1287.04,532.2C1287.17,531.542 1287.3,530.587 1287.43,529.335C1287.56,528.084 1287.56,526.602 1287.43,524.89C1287.17,519.621 1286.25,515.505 1284.66,512.542C1283.08,509.578 1281.17,507.405 1278.93,506.022C1276.7,504.639 1274.59,503.75 1272.61,503.354C1270.64,502.959 1269.19,502.762 1268.27,502.762C1266.82,502.63 1265.5,502.597 1264.31,502.663C1263.18,502.726 1261.93,502.759 1260.56,502.761L1260.56,600.166C1260.56,603.459 1261.71,605.994 1264.02,607.772C1266.32,609.551 1268.73,610.44 1271.23,610.44L1273.2,610.44L1273.2,612.415L1214.33,612.415Z" style="fill:rgb(43,43,43);fill-rule:nonzero;"/>
                        </g>
                        <g transform="matrix(0.396339,0,0,0.396339,210.784,-47.2567)">
                            <path d="M1344.57,676.903L1344.57,674.928L1346.94,674.928C1349.97,674.928 1352.57,673.874 1354.75,671.766C1356.92,669.659 1358.01,667.156 1358.01,664.259L1358.01,570.806C1357.87,567.645 1356.72,565.109 1354.55,563.199C1352.37,561.29 1349.77,560.335 1346.74,560.335L1344.37,560.335L1344.37,558.359L1411.55,558.359C1426.04,558.359 1438.45,560.697 1448.79,565.373C1459.13,570.049 1467.07,576.799 1472.6,585.624C1478.13,594.449 1480.9,605.118 1480.9,617.631C1480.9,630.144 1478.13,640.813 1472.6,649.638C1467.07,658.463 1459.13,665.214 1448.79,669.89C1438.45,674.565 1426.04,676.903 1411.55,676.903L1344.57,676.903ZM1390.8,566.756L1407.39,566.756C1418.98,566.756 1428.07,571.267 1434.66,580.29C1441.24,589.312 1444.54,601.792 1444.54,617.73C1444.54,633.668 1441.21,646.115 1434.56,655.071C1427.91,664.028 1418.85,668.507 1407.39,668.507L1390.8,668.507L1390.8,566.756Z" style="fill:rgb(43,43,43);"/>
                        </g>
                    </g>
                </g>
                <g transform="matrix(0.632505,0,0,0.632505,-932.581,274.173)">
                    <text x="3763.1px" y="756.658px" style="font-family:'EastmanTrial-Regular', 'Eastman Trial';font-size:11.422px;fill:rgb(97,97,97);">P<tspan x="3772.08px 3783.1px 3794.44px 3804.59px 3813.62px 3819.29px 3830.92px 3841.08px 3846.52px 3857.55px 3869.17px 3881.77px 3887.17px 3898.51px 3903.92px 3913.2px 3922.59px 3932.95px 3943.41px 3953.97px 3959.37px 3971.45px " y="756.658px 756.658px 756.658px 756.658px 756.658px 756.658px 756.658px 756.658px 756.658px 756.658px 756.658px 756.658px 756.658px 756.658px 756.658px 756.658px 756.658px 756.658px 756.658px 756.658px 756.658px 756.658px ">ANEL DE ADMINISTRACIÓN</tspan></text>
                </g>
            </g>
        </g>
    </g>
    <defs>
        <linearGradient id="_Linear1" x1="0" y1="0" x2="1" y2="0" gradientUnits="userSpaceOnUse" gradientTransform="matrix(5.46498e-15,89.25,-89.25,5.46498e-15,717.228,515.199)"><stop offset="0" style="stop-color:rgb(53,149,255);stop-opacity:1"/><stop offset="1" style="stop-color:rgb(0,84,187);stop-opacity:1"/></linearGradient>
        <linearGradient id="_Linear2" x1="0" y1="0" x2="1" y2="0" gradientUnits="userSpaceOnUse" gradientTransform="matrix(73.7222,0,0,73.7222,348.704,205.577)"><stop offset="0" style="stop-color:rgb(53,149,255);stop-opacity:1"/><stop offset="1" style="stop-color:rgb(0,84,187);stop-opacity:1"/></linearGradient>
    </defs>
</svg>
